<svg xmlns="http://www.w3.org/2000/svg" viewBox="0 0 64 64"><path d="M49.5,54h-35A6.51,6.51,0,0,1,8,47.5V14.44A10.45,10.45,0,0,1,18.44,4H45.56A10.45,10.45,0,0,1,56,14.44V47.5A6.51,6.51,0,0,1,49.5,54ZM18.44,6A8.45,8.45,0,0,0,10,14.44V47.5A4.51,4.51,0,0,0,14.5,52h35A4.51,4.51,0,0,0,54,47.5V14.44A8.45,8.45,0,0,0,45.56,6Zm27,28H18.54A3.55,3.55,0,0,1,15,30.46v-10A8.48,8.48,0,0,1,23.48,12h17A8.48,8.48,0,0,1,49,20.48v10A3.55,3.55,0,0,1,45.46,34Zm-22-20A6.49,6.49,0,0,0,17,20.48v10A1.54,1.54,0,0,0,18.54,32H45.46A1.54,1.54,0,0,0,47,30.46v-10A6.49,6.49,0,0,0,40.52,14ZM19,47a5.32,5.32,0,1,1,5.32-5.32A5.33,5.33,0,0,1,19,47Zm0-8.64a3.32,3.32,0,1,0,3.32,3.32A3.32,3.32,0,0,0,19,38.4ZM45,47a5.32,5.32,0,1,1,5.32-5.32A5.33,5.33,0,0,1,45,47Zm0-8.64a3.32,3.32,0,1,0,3.32,3.32A3.32,3.32,0,0,0,45,38.4ZM38,39a1,1,0,0,0-1-1H27a1,1,0,0,0,0,2H37A1,1,0,0,0,38,39ZM38,9a1,1,0,0,0-1-1H27a1,1,0,0,0,0,2H37A1,1,0,0,0,38,9ZM37,44a1,1,0,0,0-1-1H28a1,1,0,0,0,0,2h8A1,1,0,0,0,37,44ZM19.34,60H16.66A2.66,2.66,0,0,1,14,57.34V54.66A2.66,2.66,0,0,1,16.66,52h2.68A2.66,2.66,0,0,1,22,54.66v2.68A2.66,2.66,0,0,1,19.34,60Zm-2.68-6a.67.67,0,0,0-.66.66v2.68a.67.67,0,0,0,.66.66h2.68a.67.67,0,0,0,.66-.66V54.66a.67.67,0,0,0-.66-.66Zm30.68,6H44.66A2.66,2.66,0,0,1,42,57.34V54.66A2.66,2.66,0,0,1,44.66,52h2.68A2.66,2.66,0,0,1,50,54.66v2.68A2.66,2.66,0,0,1,47.34,60Zm-2.68-6a.67.67,0,0,0-.66.66v2.68a.67.67,0,0,0,.66.66h2.68a.67.67,0,0,0,.66-.66V54.66a.67.67,0,0,0-.66-.66Z" data-name="27-Bus"/></svg>