<svg xmlns="http://www.w3.org/2000/svg" enable-background="new 0 0 64 64" viewBox="0 0 64 64"><path fill="#2a3a3e" d="M55.21,21.71c-0.57,0-1.04-0.46-1.04-1.04v-8.79H22.25c-0.58,0-1.04,0.47-1.04,1.04v49.57
		c0,0.58,0.47,1.04,1.04,1.04h40.7c0.58,0,1.04-0.47,1.04-1.04V21.71H55.21z M38.6,18.02h11.29c0.57,0,1.04,0.47,1.04,1.04
		c0,0.58-0.47,1.04-1.04,1.04H38.6c-0.57,0-1.04-0.46-1.04-1.04C37.56,18.48,38.03,18.02,38.6,18.02z M25.75,18.02h8.13
		c0.57,0,1.04,0.47,1.04,1.04c0,0.58-0.47,1.04-1.04,1.04h-8.13c-0.57,0-1.04-0.46-1.04-1.04C24.7,18.48,25.17,18.02,25.75,18.02z
		 M25.75,27.21h18.5c0.58,0,1.04,0.46,1.04,1.04c0,0.57-0.46,1.04-1.04,1.04h-18.5c-0.57,0-1.04-0.47-1.04-1.04
		C24.7,27.67,25.17,27.21,25.75,27.21z M39.79,39.52c-0.58,0-1.04-0.46-1.04-1.04c0-0.57,0.46-1.04,1.04-1.04h18.5
		c0.58,0,1.04,0.47,1.04,1.04c0,0.58-0.46,1.04-1.04,1.04H39.79z M45.62,47.41c0,0.57-0.47,1.04-1.04,1.04H26.07
		c-0.57,0-1.04-0.47-1.04-1.04c0-0.57,0.47-1.04,1.04-1.04h18.51C45.15,46.36,45.62,46.83,45.62,47.41z M25.09,37.44h10.24
		c0.57,0,1.04,0.47,1.04,1.04c0,0.58-0.47,1.04-1.04,1.04H25.09c-0.57,0-1.04-0.46-1.04-1.04C24.05,37.91,24.52,37.44,25.09,37.44z
		 M35.33,57.37H25.09c-0.57,0-1.04-0.47-1.04-1.04c0-0.57,0.47-1.04,1.04-1.04h10.24c0.57,0,1.04,0.47,1.04,1.04
		C36.37,56.91,35.9,57.37,35.33,57.37z M58.29,57.37h-18.5c-0.58,0-1.04-0.47-1.04-1.04c0-0.57,0.46-1.04,1.04-1.04h18.5
		c0.58,0,1.04,0.47,1.04,1.04C59.33,56.91,58.87,57.37,58.29,57.37z M59.08,48.45h-8.14c-0.57,0-1.04-0.47-1.04-1.04
		c0-0.57,0.47-1.04,1.04-1.04h8.14c0.57,0,1.04,0.47,1.04,1.04C60.12,47.98,59.65,48.45,59.08,48.45z M60.13,29.3H49.89
		c-0.57,0-1.04-0.47-1.04-1.04c0-0.58,0.47-1.04,1.04-1.04h10.24c0.57,0,1.04,0.46,1.04,1.04C61.17,28.83,60.71,29.3,60.13,29.3z"/><polygon fill="#2a3a3e" points="56.25 13.34 56.25 19.62 62.53 19.62"/><path fill="#2a3a3e" d="M29.71,1.08c-0.23-0.51-0.83-0.74-1.35-0.53L0.64,12.17C0.11,12.39-0.14,13,0.08,13.53L16.41,52.6
		c0.24,0.57,0.91,0.81,1.45,0.52l1.26-0.68V41.2l-1.6,0.57c-0.11,0.04-0.24,0.06-0.35,0.06c-0.43,0-0.82-0.27-0.98-0.69
		c-0.2-0.54,0.08-1.15,0.63-1.33l2.3-0.83V34.7l-3.81,1.43c-0.13,0.05-0.25,0.07-0.38,0.07c-0.42,0-0.81-0.26-0.97-0.68
		c-0.21-0.54,0.07-1.14,0.6-1.35l4.55-1.71v-4.44l-6.27,2.4c-0.13,0.04-0.25,0.06-0.38,0.06c-0.42,0-0.81-0.25-0.98-0.67
		c-0.2-0.54,0.06-1.15,0.6-1.35l7.02-2.69v-4.24L11,24.8c-0.13,0.05-0.26,0.07-0.39,0.07c-0.42,0-0.8-0.24-0.97-0.65
		c-0.22-0.54,0.04-1.15,0.57-1.36l8.9-3.59v-4.85L8.15,18.89c-0.13,0.05-0.26,0.08-0.39,0.08c-0.42,0-0.8-0.25-0.97-0.66
		c-0.22-0.53,0.04-1.14,0.57-1.36l11.76-4.79v-1.35c0-0.57,0.47-1.04,1.04-1.04H33.7L29.71,1.08z"/></svg>