<svg xmlns="http://www.w3.org/2000/svg" width="64" height="64" enable-background="new 0 0 64 64" viewBox="0 0 64 64"><path d="M54.5,39.74c-3.468,0-3.468,5.379,0,5.379S57.968,39.74,54.5,39.74z M54.5,43.119c-0.889,0-0.889-1.379,0-1.379
		S55.389,43.119,54.5,43.119z"/><path d="M55.077,18.93H47H32h-4.615c-5.135,0-10.536,6.889-11.288,11.322C12.516,30.345,1,31.091,1,36.828v5.602
		c0,0.552,0.448,1,1,1h5.654c0.477,2.676,2.877,4.689,5.596,4.689s5.119-2.014,5.596-4.689h30.059
		c0.477,2.676,2.877,4.689,5.596,4.689s5.119-2.014,5.596-4.689H62c0.552,0,1-0.448,1-1V31.238v-3.77
		C63,22.95,58.569,18.93,55.077,18.93z M61,27.469v2.77H48V20.93h7.077C57.554,20.93,61,24.225,61,27.469z M46,30.238H33V20.93h13
		V30.238z M27.385,20.93H31v9.309H18.122C18.924,26.642,23.542,20.93,27.385,20.93z M13.25,46.119c-2.008,0-3.689-1.681-3.689-3.689
		c0-2.005,1.691-3.666,3.689-3.666s3.689,1.661,3.689,3.666C16.939,44.438,15.258,46.119,13.25,46.119z M54.5,46.119
		c-2.008,0-3.689-1.681-3.689-3.689c0-2.005,1.691-3.666,3.689-3.666s3.689,1.661,3.689,3.666
		C58.189,44.438,56.508,46.119,54.5,46.119z M61,41.43h-0.899c-0.477-2.672-2.889-4.689-5.601-4.689s-5.124,2.017-5.601,4.689
		H18.851c-0.477-2.672-2.889-4.689-5.601-4.689s-5.124,2.017-5.601,4.689H3v-1.75h2.75c1.29,0,1.29-2,0-2H3v-0.852
		c0-3.742,10.368-4.588,14-4.59h15h15h14V41.43z"/><path d="M43.25 33.93c-1.29 0-1.29 2 0 2H47c1.29 0 1.29-2 0-2H43.25zM32 33.93h-3.75c-1.29 0-1.29 2 0 2H32C33.29 35.93 33.29 33.93 32 33.93zM13.25 39.74c-3.468 0-3.468 5.379 0 5.379S16.718 39.74 13.25 39.74zM13.25 43.119c-.889 0-.889-1.379 0-1.379S14.139 43.119 13.25 43.119z"/></svg>