<svg width="33" height="33" viewBox="0 0 33 33" fill="none" xmlns="http://www.w3.org/2000/svg">
<path d="M23.9105 1H9.08952C4.6218 1 1 4.6218 1 9.08952V23.9105C1 28.3782 4.6218 32 9.08952 32H23.9105C28.3782 32 32 28.3782 32 23.9105V9.08952C32 4.6218 28.3782 1 23.9105 1Z" fill="white" stroke="black" stroke-linecap="round" stroke-linejoin="round"/>
<path d="M16.5 24.6191C20.9841 24.6191 24.6191 20.9841 24.6191 16.5C24.6191 12.016 20.9841 8.38098 16.5 8.38098C12.016 8.38098 8.38098 12.016 8.38098 16.5C8.38098 20.9841 12.016 24.6191 16.5 24.6191Z" fill="white" stroke="black" stroke-linecap="round" stroke-linejoin="round"/>
<path d="M25.3571 6.90478C25.7648 6.90478 26.0952 6.57432 26.0952 6.16668C26.0952 5.75905 25.7648 5.42859 25.3571 5.42859C24.9495 5.42859 24.619 5.75905 24.619 6.16668C24.619 6.57432 24.9495 6.90478 25.3571 6.90478Z" fill="black" stroke="black" stroke-linecap="round" stroke-linejoin="round"/>
</svg>
