<svg xmlns="http://www.w3.org/2000/svg" viewBox="0 0 100 100"><g data-name="Layer 2"><path d="M29.14 61.49a8.14 8.14 0 1 0 8.13 8.13A8.13 8.13 0 0 0 29.14 61.49zm-.07 11.87c-4.73 0-4.72-7.34 0-7.34S33.79 73.36 29.07 73.36zM85.82 61.49A8.14 8.14 0 1 0 94 69.62 8.13 8.13 0 0 0 85.82 61.49zm-.07 11.87C81 73.36 81 66 85.75 66S90.47 73.36 85.75 73.36z"/><rect width="32.7" height="7.06" x="14.28" y="44.03"/><path d="M95,59H93.23a1.72,1.72,0,1,1,0-3.43h1.39A3.4,3.4,0,0,0,92,53.74L72.44,51.66a1.5,1.5,0,0,1-1.34-1.48,1.52,1.52,0,0,0-.18-.7L66.18,40.8a1.4,1.4,0,0,0-.53-.55.9.9,0,0,0,.53-.61L67,35.73a.86.86,0,0,0-.66-1l-14.19-3a.88.88,0,0,0-1,.67l-.82,3.91a.86.86,0,0,0,.66,1l1.93.41A15.62,15.62,0,0,0,50,37.45h-.54a1.84,1.84,0,0,0,.54-1.3V32.61a1.83,1.83,0,0,0-1.42-1.78L11.52,22.29A1.83,1.83,0,0,0,9.28,24.1l.2,11a1.82,1.82,0,0,0,.79,1.5,7.22,7.22,0,0,1,1.33,1.05h.18a1.87,1.87,0,0,0-1.06,1.68v7.38a.86.86,0,0,0-.86-.86h-4a.86.86,0,0,0-.86.86v14.5a.87.87,0,0,0,.86.86h4a.87.87,0,0,0,.86-.86V64a1.48,1.48,0,0,0,1.1,1.44c1.53.41,4.3,1.1,5.9,1.5a1.24,1.24,0,0,0,1.51-1l.37-1.7a5.8,5.8,0,0,1,5.68-4.59h7.3a5.81,5.81,0,0,1,5.68,4.59l.63,3a2.63,2.63,0,0,1,.06.39h4.18a.74.74,0,0,1,.74.74.74.74,0,0,0,.73.74H70.36a.74.74,0,0,0,.74-.74.74.74,0,0,1,.74-.74h3.44a2.63,2.63,0,0,1,.06-.39l.63-3a5.81,5.81,0,0,1,5.68-4.59h8.51a4.32,4.32,0,0,1,4.22,3.41.31.31,0,1,0,.62,0v0h0ZM44.81,31.77c.78,0,.78.82,0,.82S44,31.77,44.81,31.77Zm-5.93,0h3.58c.31,0,.62.18.6.41s-.26.41-.6.41H38.88c-.31,0-.61-.19-.6-.41S38.55,31.76,38.88,31.76Zm1.73,2.35c-.78,0-.78-.83,0-.83S41.39,34.11,40.61,34.11Zm-7.23-.83h4.9c.77,0,.77.83,0,.83h-4.9C32.61,34.11,32.61,33.28,33.38,33.28Zm-21.53,1V25.07A.91.91,0,0,1,13,24.18L29.08,28a.92.92,0,0,1,.7.89v5.44a.91.91,0,0,1-.91.91H12.76A.91.91,0,0,1,11.85,34.29Zm36,16.79A.92.92,0,0,1,47,52H14.28a.92.92,0,0,1-.92-.92V44a.93.93,0,0,1,.92-.92H47a.92.92,0,0,1,.92.92Zm10.42,5.26H55.72a.73.73,0,1,1,0-1.45h2.59a.74.74,0,0,1,.73.73A.73.73,0,0,1,58.31,56.34ZM66.6,52H56.66A1.63,1.63,0,0,1,55,50.37V44.74a1.63,1.63,0,0,1,1.62-1.63h7.13a1.63,1.63,0,0,1,1.45.9l2.82,5.64A1.63,1.63,0,0,1,66.6,52Z"/></g></svg>