<svg width="31" height="31" viewBox="0 0 31 31" fill="none" xmlns="http://www.w3.org/2000/svg">
<rect width="31" height="31" fill="black"/>
<path d="M9.68828 11.625C9.68852 11.625 9.68797 11.625 9.68828 11.625H4.52083C4.16432 11.6247 3.87523 11.9136 3.87499 12.27C3.87499 12.2698 3.87499 12.2703 3.87499 12.27V27.7708C3.87476 28.1273 4.16362 28.4164 4.52004 28.4167C4.5198 28.4167 4.52035 28.4167 4.52004 28.4167H9.68749C10.044 28.4169 10.3331 28.128 10.3333 27.7715C10.3333 27.7718 10.3333 27.7713 10.3333 27.7715V12.2708C10.3336 11.9143 10.0447 11.6252 9.68828 11.625ZM9.04166 27.125H5.16666V12.9166H9.04166V27.125ZM23.25 11.625C21.8487 11.6251 20.4867 12.0875 19.375 12.9406V12.2708C19.3752 11.9143 19.0864 11.6252 18.7299 11.625C18.7302 11.625 18.7296 11.625 18.7299 11.625H13.5625C13.206 11.6247 12.9169 11.9136 12.9167 12.27C12.9167 12.2698 12.9167 12.2703 12.9167 12.27V27.7708C12.9164 28.1273 13.2053 28.4164 13.5618 28.4167C13.5615 28.4167 13.562 28.4167 13.5618 28.4167H18.7292C19.0857 28.4169 19.3748 28.128 19.375 27.7715C19.375 27.7718 19.375 27.7713 19.375 27.7715V20.6666C19.375 19.5966 20.2424 18.7291 21.3125 18.7291C22.3825 18.7291 23.25 19.5966 23.25 20.6666V27.7708C23.2498 28.1273 23.5386 28.4164 23.8951 28.4167C23.8949 28.4167 23.8954 28.4167 23.8951 28.4167H29.0625C29.419 28.4169 29.7081 28.128 29.7083 27.7715C29.7083 27.7718 29.7083 27.7713 29.7083 27.7715V18.0833C29.7041 14.5182 26.8151 11.6292 23.25 11.625ZM28.4167 27.125H24.5417V20.6666C24.5417 18.8832 23.0959 17.4375 21.3125 17.4375C19.529 17.4375 18.0833 18.8832 18.0833 20.6666V27.125H14.2083V12.9166H18.0833V14.4707C18.0833 14.7451 18.2569 14.9895 18.5161 15.0799C18.7746 15.1731 19.0637 15.0903 19.2338 14.8743C20.9938 12.6439 24.2286 12.2625 26.4591 14.0226C27.7014 15.003 28.4235 16.5007 28.4167 18.0833V27.125ZM7.57947 2.58568C7.42755 2.57504 7.27508 2.57425 7.12308 2.58332C5.1736 2.45016 3.4853 3.9226 3.35214 5.87208C3.34678 5.95053 3.3441 6.02905 3.34395 6.10765C3.32715 8.04058 4.88048 9.6211 6.81341 9.63789C6.89232 9.6386 6.97116 9.63655 7.04992 9.6319H7.0865C9.03228 9.76805 10.7199 8.30105 10.8561 6.35528C10.9922 4.4095 9.52525 2.72183 7.57947 2.58568ZM7.53485 8.34394C7.38569 8.35766 7.23542 8.35648 7.0865 8.34024H7.04992C5.81494 8.43516 4.73692 7.51103 4.642 6.27604C4.54708 5.04114 5.47121 3.96304 6.70619 3.86812C6.8451 3.85748 6.98464 3.85977 7.12308 3.87498C8.35712 3.7613 9.44972 4.6695 9.56348 5.90354C9.67716 7.13765 8.76896 8.23026 7.53485 8.34394Z" fill="white"/>
</svg>
