<svg width="222" height="222" viewBox="0 0 222 222" fill="none" xmlns="http://www.w3.org/2000/svg">
<g filter="url(#filter0_d_58_24)">
<rect x="6" y="6" width="200" height="200" rx="5" fill="black"/>
</g>
<path d="M110.51 141.268C109.769 142.549 108.385 143.411 106.799 143.411C104.432 143.411 102.514 141.492 102.514 139.125C102.514 136.758 104.432 134.839 106.799 134.839C108.385 134.839 109.769 135.701 110.51 136.982H130.37C131.745 136.982 133.071 136.799 134.331 136.461C136.954 132.118 138.576 127.101 138.886 121.724C140.01 121.443 141.047 120.94 141.946 120.264C141.406 119.547 141.086 118.657 141.086 117.696V109.553L138.942 111.267C138.942 109.123 138.942 106.881 138.942 104.838L119.657 83.838L74.657 104.838C74.657 106.88 74.657 109.123 74.657 111.267L70.371 107.838C70.371 107.838 70.371 107.803 70.371 107.743C69.038 109.254 68.228 111.237 68.228 113.41C68.228 117.424 70.988 120.792 74.712 121.724C75.685 138.627 89.647 151.981 106.799 151.981C116.345 151.981 124.902 147.844 130.783 141.261C130.645 141.264 130.508 141.266 130.37 141.266H110.51V141.268ZM121.799 109.125C124.166 109.125 126.085 111.043 126.085 113.411C126.085 115.778 124.166 117.697 121.799 117.697C119.432 117.697 117.513 115.778 117.513 113.411C117.513 111.044 119.432 109.125 121.799 109.125ZM91.799 117.697C89.432 117.697 87.513 115.778 87.513 113.411C87.513 111.044 89.432 109.125 91.799 109.125C94.166 109.125 96.085 111.043 96.085 113.411C96.085 115.778 94.166 117.697 91.799 117.697ZM145.37 121.982C145.37 128.964 140.731 134.747 134.331 136.461C133.671 137.449 131.962 139.932 130.783 141.262C141.304 141.046 149.656 132.558 149.656 121.982V121.402C149.024 121.77 148.293 121.982 147.512 121.982H145.37Z" fill="white"/>
<path d="M111.085 66.268C127.585 66.268 141.085 79.768 141.085 96.268V109.125C141.085 106.768 143.013 104.839 145.37 104.839V96.268C145.37 77.411 129.941 61.982 111.085 61.982H96.085C94.799 61.982 93.941 62.839 93.941 64.125C93.941 65.029 94.366 65.72 95.065 66.051C95.36 66.191 95.703 66.268 96.085 66.268H111.085Z" fill="white"/>
<path d="M147.513 104.839H145.37C143.013 104.839 141.085 106.768 141.085 109.125V109.553V117.696C141.085 118.657 141.405 119.548 141.945 120.264C142.729 121.305 143.974 121.981 145.37 121.981H147.513C148.293 121.981 149.025 121.769 149.657 121.401C150.935 120.657 151.8 119.273 151.8 117.695V109.124C151.799 106.768 149.87 104.839 147.513 104.839Z" fill="white"/>
<defs>
<filter id="filter0_d_58_24" x="0" y="0" width="222" height="222" filterUnits="userSpaceOnUse" color-interpolation-filters="sRGB">
<feFlood flood-opacity="0" result="BackgroundImageFix"/>
<feColorMatrix in="SourceAlpha" type="matrix" values="0 0 0 0 0 0 0 0 0 0 0 0 0 0 0 0 0 0 127 0" result="hardAlpha"/>
<feMorphology radius="1" operator="dilate" in="SourceAlpha" result="effect1_dropShadow_58_24"/>
<feOffset dx="5" dy="5"/>
<feGaussianBlur stdDeviation="5"/>
<feComposite in2="hardAlpha" operator="out"/>
<feColorMatrix type="matrix" values="0 0 0 0 1 0 0 0 0 1 0 0 0 0 1 0 0 0 1 0"/>
<feBlend mode="normal" in2="BackgroundImageFix" result="effect1_dropShadow_58_24"/>
<feBlend mode="normal" in="SourceGraphic" in2="effect1_dropShadow_58_24" result="shape"/>
</filter>
</defs>
</svg>
