<svg width="222" height="222" viewBox="0 0 222 222" fill="none" xmlns="http://www.w3.org/2000/svg">
<g filter="url(#filter0_d_119_70)">
<rect x="6" y="6" width="200" height="200" rx="5" fill="black"/>
</g>
<path d="M93.375 153.062C88.4252 153.068 83.5852 151.603 79.4684 148.855C75.3516 146.107 72.1433 142.198 70.25 137.625C70.0853 137.21 70.0113 136.765 70.0331 136.319C70.0548 135.874 70.1718 135.438 70.3761 135.041C70.5803 134.644 70.8672 134.296 71.2174 134.019C71.5676 133.743 71.973 133.544 72.4062 133.437V133.437C73.1311 133.262 73.8949 133.351 74.5597 133.689C75.2245 134.027 75.7465 134.592 76.0312 135.281C77.4584 138.702 79.8678 141.624 82.9548 143.676C86.0418 145.729 89.668 146.82 93.375 146.812H94.5C99.4728 146.837 104.252 144.886 107.786 141.387C111.32 137.888 113.319 133.129 113.344 128.156C113.369 123.183 111.417 118.404 107.918 114.87C104.42 111.337 99.6603 109.337 94.6875 109.312H93.375C89.794 109.31 86.2872 110.332 83.269 112.259C80.2509 114.186 77.8477 116.938 76.3437 120.187C76.0294 120.868 75.4808 121.413 74.7981 121.723C74.1155 122.032 73.3442 122.086 72.625 121.875C72.1978 121.752 71.8018 121.539 71.4634 121.251C71.125 120.962 70.8521 120.605 70.6628 120.203C70.4735 119.8 70.3722 119.362 70.3657 118.918C70.3591 118.473 70.4476 118.033 70.625 117.625C72.6428 113.288 75.854 109.615 79.8828 107.036C83.9116 104.457 88.5915 103.079 93.375 103.062C94.0098 103.022 94.6465 103.022 95.2812 103.062C101.513 103.611 107.313 106.477 111.535 111.093C115.757 115.71 118.095 121.741 118.087 127.997C118.079 134.253 115.726 140.279 111.492 144.885C107.259 149.49 101.452 152.342 95.2187 152.875C94.6092 152.98 93.9931 153.042 93.375 153.062V153.062Z" fill="white"/>
<path d="M102.062 133.312C102.121 135.441 101.36 137.51 99.9375 139.094C98.8638 140.22 97.4454 140.957 95.9062 141.187V143.281C95.9062 144.035 95.6066 144.759 95.0733 145.292C94.54 145.825 93.8167 146.125 93.0625 146.125V146.125C92.3083 146.125 91.5849 145.825 91.0516 145.292C90.5183 144.759 90.2187 144.035 90.2187 143.281V141C88.8467 140.548 87.6267 139.725 86.6944 138.622C85.7621 137.518 85.1539 136.178 84.9375 134.75C84.8597 134.445 84.8477 134.127 84.9023 133.817C84.9569 133.507 85.0769 133.212 85.2542 132.952C85.4315 132.692 85.6622 132.472 85.9309 132.308C86.1996 132.144 86.5001 132.039 86.8125 132C87.3133 131.931 87.8225 132.041 88.2509 132.309C88.6793 132.577 88.9997 132.988 89.1562 133.469C89.3718 134.191 89.7334 134.861 90.2187 135.437C90.6086 135.88 91.0901 136.232 91.6298 136.469C92.1694 136.707 92.7543 136.824 93.3437 136.812C94.1915 136.842 95.032 136.648 95.7812 136.25C96.0173 136.12 96.2375 135.962 96.4375 135.781C96.756 135.519 97.0194 135.196 97.2125 134.831C97.4056 134.466 97.5246 134.067 97.5625 133.656C97.657 132.977 97.5252 132.285 97.1875 131.687C96.8939 131.241 96.4831 130.884 96 130.656H95.7812C95.1562 130.375 93.9062 129.969 92.0625 129.406L90.25 128.719C89.5057 128.437 88.8017 128.059 88.1562 127.594C87.271 126.907 86.5637 126.017 86.0937 125C85.6036 123.942 85.3477 122.791 85.3437 121.625C85.3166 120.27 85.651 118.933 86.3125 117.75C86.9312 116.627 87.8804 115.721 89.0312 115.156C89.4207 114.951 89.8288 114.784 90.25 114.656V112.969C90.25 112.214 90.5496 111.491 91.0829 110.958C91.6162 110.425 92.3395 110.125 93.0937 110.125V110.125C93.8479 110.125 94.5712 110.425 95.1046 110.958C95.6379 111.491 95.9375 112.214 95.9375 112.969V114.562C97.1669 114.845 98.2992 115.449 99.2187 116.312C100.106 117.172 100.753 118.25 101.094 119.437C101.172 119.752 101.181 120.08 101.119 120.398C101.057 120.716 100.926 121.017 100.735 121.279C100.545 121.541 100.299 121.758 100.015 121.915C99.7316 122.072 99.4171 122.165 99.0937 122.187V122.187C98.621 122.226 98.1488 122.106 97.7524 121.845C97.3559 121.585 97.0581 121.199 96.9062 120.75C96.7493 120.233 96.4707 119.762 96.0937 119.375V119.375C95.323 118.767 94.3544 118.467 93.375 118.531C92.4143 118.465 91.4587 118.718 90.6562 119.25L90.4375 119.437C90.1977 119.641 90.0061 119.895 89.8764 120.181C89.7467 120.468 89.6822 120.779 89.6875 121.094C89.6899 121.411 89.7577 121.725 89.8867 122.016C90.0158 122.306 90.2032 122.567 90.4375 122.781V122.781C91.6561 123.542 92.9997 124.082 94.4062 124.375L96 124.875C97.1079 125.223 98.1603 125.728 99.125 126.375C100.103 127.066 100.879 128.004 101.375 129.094C101.921 130.43 102.156 131.872 102.062 133.312ZM116.437 106.187C115.673 106.185 114.911 106.122 114.156 106C112.301 105.709 110.611 104.766 109.391 103.339C108.17 101.912 107.5 100.096 107.5 98.2187C107.5 96.9917 107.789 95.7819 108.344 94.6874C108.491 94.4195 108.569 94.1184 108.569 93.8124C108.569 93.5064 108.491 93.2054 108.344 92.9374C108.183 92.677 107.957 92.4626 107.689 92.3148C107.421 92.167 107.119 92.0908 106.812 92.0937H106.375L72 103.281C71.1964 103.606 70.3354 103.766 69.4687 103.75C67.8447 103.754 66.2607 103.246 64.9422 102.298C63.6237 101.35 62.6378 100.01 62.125 98.4687C61.5226 96.9885 61.3945 95.3578 61.7583 93.8017C62.1221 92.2456 62.96 90.8408 64.1562 89.7812L71.5 83.4687C71.8138 83.2037 72.1768 83.0033 72.5681 82.8787C72.9595 82.7542 73.3716 82.708 73.7808 82.7428C74.1901 82.7776 74.5884 82.8928 74.9531 83.0817C75.3178 83.2706 75.6417 83.5295 75.9062 83.8437V83.8437C76.1712 84.1575 76.3716 84.5205 76.4962 84.9119C76.6207 85.3032 76.6669 85.7153 76.6321 86.1245C76.5973 86.5338 76.4821 86.9321 76.2932 87.2968C76.1043 87.6615 75.8454 87.9854 75.5312 88.2499L68.0625 94.4999C67.8672 94.7493 67.7461 95.0486 67.7129 95.3636C67.6797 95.6786 67.7359 95.9966 67.875 96.2812C68.125 96.9687 68.7187 97.7812 69.4375 97.4687L104.312 86.2187C105.079 85.9673 105.881 85.8407 106.687 85.8437C108.059 85.844 109.407 86.1926 110.607 86.8568C111.806 87.521 112.817 88.4791 113.545 89.6411C114.273 90.8032 114.694 92.1311 114.768 93.5002C114.842 94.8694 114.567 96.2349 113.969 97.4687C113.864 97.7007 113.815 97.9542 113.826 98.2085C113.838 98.4629 113.908 98.711 114.033 98.933C114.158 99.155 114.333 99.3446 114.544 99.4865C114.756 99.6284 114.997 99.7186 115.25 99.7499C117.139 100.042 119.07 99.6424 120.687 98.6249C121.077 98.3778 121.443 98.0954 121.781 97.7812L130.156 87.8437C130.703 87.1899 131.387 86.6636 132.159 86.302C132.931 85.9403 133.772 85.7519 134.625 85.7499H138.844V71.0312H97.8125C96.6674 71.0666 95.5671 71.4847 94.6875 72.2187L87.6562 78.0312C87.3424 78.2961 86.9794 78.4966 86.588 78.6212C86.1967 78.7457 85.7846 78.7919 85.3754 78.7571C84.9661 78.7222 84.5678 78.6071 84.2031 78.4182C83.8384 78.2293 83.5145 77.9704 83.25 77.6562C82.985 77.3424 82.7846 76.9794 82.66 76.588C82.5355 76.1966 82.4893 75.7846 82.5241 75.3753C82.5589 74.9661 82.6741 74.5677 82.863 74.2031C83.0519 73.8384 83.3108 73.5145 83.625 73.2499L90.5312 67.4062C92.5739 65.698 95.1497 64.7583 97.8125 64.7499H145.031V92.0937H134.594L126.094 102.312C123.487 104.788 120.033 106.175 116.437 106.187V106.187Z" fill="white"/>
<path d="M151.656 96.4375H144.656C143.885 96.4375 143.121 96.2855 142.408 95.9903C141.695 95.695 141.048 95.2623 140.502 94.7168C139.956 94.1712 139.524 93.5236 139.228 92.8108C138.933 92.098 138.781 91.334 138.781 90.5625V64.7813C138.79 63.2285 139.412 61.7422 140.513 60.6472C141.614 59.5522 143.103 58.9375 144.656 58.9375H151.656C153.214 58.9375 154.709 59.5565 155.81 60.6582C156.912 61.76 157.531 63.2544 157.531 64.8125V90.5625C157.531 92.1206 156.912 93.615 155.81 94.7168C154.709 95.8185 153.214 96.4375 151.656 96.4375V96.4375ZM145.031 90.1875H151.281V65.1875H145.031V90.1875Z" fill="white"/>
<defs>
<filter id="filter0_d_119_70" x="0" y="0" width="222" height="222" filterUnits="userSpaceOnUse" color-interpolation-filters="sRGB">
<feFlood flood-opacity="0" result="BackgroundImageFix"/>
<feColorMatrix in="SourceAlpha" type="matrix" values="0 0 0 0 0 0 0 0 0 0 0 0 0 0 0 0 0 0 127 0" result="hardAlpha"/>
<feMorphology radius="1" operator="dilate" in="SourceAlpha" result="effect1_dropShadow_119_70"/>
<feOffset dx="5" dy="5"/>
<feGaussianBlur stdDeviation="5"/>
<feComposite in2="hardAlpha" operator="out"/>
<feColorMatrix type="matrix" values="0 0 0 0 1 0 0 0 0 1 0 0 0 0 1 0 0 0 1 0"/>
<feBlend mode="normal" in2="BackgroundImageFix" result="effect1_dropShadow_119_70"/>
<feBlend mode="normal" in="SourceGraphic" in2="effect1_dropShadow_119_70" result="shape"/>
</filter>
</defs>
</svg>
