<svg width="222" height="222" viewBox="0 0 222 222" fill="none" xmlns="http://www.w3.org/2000/svg">
<g filter="url(#filter0_d_119_72)">
<rect x="16" y="6" width="200" height="200" rx="5" fill="black"/>
</g>
<path d="M141.266 89.9219C140.375 89.9219 139.641 89.2031 139.641 88.2969V74.5625H89.7656C88.8594 74.5625 88.1406 75.2969 88.1406 76.1875V153.641C88.1406 154.547 88.875 155.266 89.7656 155.266H153.359C154.266 155.266 154.984 154.531 154.984 153.641V89.9219H141.266ZM115.313 84.1563H132.953C133.844 84.1563 134.578 84.8906 134.578 85.7812C134.578 86.6875 133.844 87.4063 132.953 87.4063H115.313C114.422 87.4063 113.688 86.6875 113.688 85.7812C113.688 84.875 114.422 84.1563 115.313 84.1563ZM95.2344 84.1563H107.938C108.828 84.1563 109.562 84.8906 109.562 85.7812C109.562 86.6875 108.828 87.4063 107.938 87.4063H95.2344C94.3438 87.4063 93.6094 86.6875 93.6094 85.7812C93.5938 84.875 94.3281 84.1563 95.2344 84.1563ZM95.2344 98.5156H124.141C125.047 98.5156 125.766 99.2344 125.766 100.141C125.766 101.031 125.047 101.766 124.141 101.766H95.2344C94.3438 101.766 93.6094 101.031 93.6094 100.141C93.5938 99.2344 94.3281 98.5156 95.2344 98.5156ZM117.172 117.75C116.266 117.75 115.547 117.031 115.547 116.125C115.547 115.234 116.266 114.5 117.172 114.5H146.078C146.984 114.5 147.703 115.234 147.703 116.125C147.703 117.031 146.984 117.75 146.078 117.75H117.172ZM126.281 130.078C126.281 130.969 125.547 131.703 124.656 131.703H95.7344C94.8438 131.703 94.1094 130.969 94.1094 130.078C94.1094 129.188 94.8438 128.453 95.7344 128.453H124.656C125.547 128.438 126.281 129.172 126.281 130.078ZM94.2031 114.5H110.203C111.094 114.5 111.828 115.234 111.828 116.125C111.828 117.031 111.094 117.75 110.203 117.75H94.2031C93.3125 117.75 92.5781 117.031 92.5781 116.125C92.5781 115.234 93.3125 114.5 94.2031 114.5ZM110.203 145.641H94.2031C93.3125 145.641 92.5781 144.906 92.5781 144.016C92.5781 143.125 93.3125 142.391 94.2031 142.391H110.203C111.094 142.391 111.828 143.125 111.828 144.016C111.828 144.922 111.094 145.641 110.203 145.641ZM146.078 145.641H117.172C116.266 145.641 115.547 144.906 115.547 144.016C115.547 143.125 116.266 142.391 117.172 142.391H146.078C146.984 142.391 147.703 143.125 147.703 144.016C147.703 144.922 146.984 145.641 146.078 145.641ZM147.313 131.703H134.594C133.703 131.703 132.969 130.969 132.969 130.078C132.969 129.188 133.703 128.453 134.594 128.453H147.313C148.203 128.453 148.938 129.188 148.938 130.078C148.938 130.969 148.203 131.703 147.313 131.703ZM148.953 101.781H132.953C132.063 101.781 131.328 101.047 131.328 100.156C131.328 99.25 132.063 98.5312 132.953 98.5312H148.953C149.844 98.5312 150.578 99.25 150.578 100.156C150.578 101.047 149.859 101.781 148.953 101.781Z" fill="white"/>
<path d="M142.891 76.8438V86.6563H152.703L142.891 76.8438Z" fill="white"/>
<path d="M101.422 57.6875C101.062 56.8906 100.125 56.5312 99.3124 56.8594L55.9999 75.0156C55.1718 75.3594 54.7812 76.3125 55.1249 77.1406L80.6405 138.188C81.0155 139.078 82.0624 139.453 82.9062 139L84.8749 137.938V120.375L82.3749 121.266C82.203 121.328 81.9999 121.359 81.828 121.359C81.1562 121.359 80.5468 120.938 80.2968 120.281C79.9843 119.438 80.4218 118.484 81.2812 118.203L84.8749 116.906V110.219L78.9218 112.453C78.7187 112.531 78.5312 112.563 78.328 112.563C77.6718 112.563 77.0624 112.156 76.8124 111.5C76.4843 110.656 76.9218 109.719 77.7499 109.391L84.8593 106.719V99.7813L75.0624 103.531C74.8593 103.594 74.6718 103.625 74.4687 103.625C73.8124 103.625 73.203 103.234 72.9374 102.578C72.6249 101.734 73.0312 100.781 73.8749 100.469L84.8437 96.2656V89.6406L72.1874 94.75C71.9843 94.8281 71.7812 94.8594 71.578 94.8594C70.9218 94.8594 70.328 94.4844 70.0624 93.8438C69.7187 93 70.1249 92.0469 70.953 91.7188L84.8593 86.1094V78.5313L67.7343 85.5156C67.5312 85.5938 67.328 85.6406 67.1249 85.6406C66.4687 85.6406 65.8749 85.25 65.6093 84.6094C65.2655 83.7813 65.6718 82.8281 66.4999 82.4844L84.8749 75V72.8906C84.8749 72 85.6093 71.2656 86.4999 71.2656H107.656L101.422 57.6875Z" fill="white"/>
<defs>
<filter id="filter0_d_119_72" x="0" y="0" width="222" height="222" filterUnits="userSpaceOnUse" color-interpolation-filters="sRGB">
<feFlood flood-opacity="0" result="BackgroundImageFix"/>
<feColorMatrix in="SourceAlpha" type="matrix" values="0 0 0 0 0 0 0 0 0 0 0 0 0 0 0 0 0 0 127 0" result="hardAlpha"/>
<feMorphology radius="1" operator="dilate" in="SourceAlpha" result="effect1_dropShadow_119_72"/>
<feOffset dx="-5" dy="5"/>
<feGaussianBlur stdDeviation="5"/>
<feComposite in2="hardAlpha" operator="out"/>
<feColorMatrix type="matrix" values="0 0 0 0 1 0 0 0 0 1 0 0 0 0 1 0 0 0 1 0"/>
<feBlend mode="normal" in2="BackgroundImageFix" result="effect1_dropShadow_119_72"/>
<feBlend mode="normal" in="SourceGraphic" in2="effect1_dropShadow_119_72" result="shape"/>
</filter>
</defs>
</svg>
