<svg width="31" height="31" viewBox="0 0 31 31" fill="none" xmlns="http://www.w3.org/2000/svg">
<path d="M0 11.1268C0 9.82503 0.352384 8.53259 1.06116 7.25255C1.76993 5.97251 2.78303 4.78234 4.10448 3.68826C5.42592 2.59418 7.15981 1.70466 9.31015 1.0228C11.4605 0.340932 13.8431 0 16.4579 0C20.7026 0 24.1864 1.0135 26.9093 3.03739C29.6323 5.06129 30.9938 7.44781 30.9938 10.197C30.9938 13.7303 29.8405 16.6499 27.53 18.9527C25.2195 21.2555 22.2362 22.4085 18.5803 22.4085C17.379 22.4085 16.2497 22.1916 15.1966 21.7576C14.1434 21.3237 13.4026 20.7968 12.9741 20.177L11.3724 25.074C11.2403 25.4676 11.0641 25.8643 10.8518 26.2672C10.6396 26.6702 10.4033 27.0576 10.1511 27.4295C9.89879 27.8014 9.64252 28.1517 9.39024 28.4833C9.13797 28.8149 8.88169 29.1249 8.62941 29.4131C8.37714 29.7014 8.15689 29.9462 7.96869 30.1415C7.78048 30.3367 7.6083 30.5072 7.44812 30.6529L7.20786 30.9008C7.12777 30.9845 7.01965 31.0155 6.88751 30.9938C6.75537 30.9721 6.67528 30.9101 6.64725 30.8078C6.64725 30.7861 6.62723 30.6436 6.58718 30.3739C6.54714 30.1043 6.5071 29.8222 6.46705 29.5216C6.42701 29.221 6.38696 28.8335 6.34692 28.3593C6.30688 27.8851 6.29486 27.4233 6.30688 26.9801C6.31889 26.5369 6.35893 26.0441 6.42701 25.5079C6.49508 24.9717 6.59519 24.4758 6.72734 24.0202C7.01965 23.0501 8.00873 19.8143 9.69057 14.3191C9.47834 13.9875 9.30214 13.5908 9.17 13.1259C9.03786 12.661 8.96978 12.2828 8.96978 11.9946L8.92974 11.5297C8.92974 10.2063 9.36221 9.10598 10.2312 8.22885C11.1001 7.35173 12.1452 6.91162 13.3746 6.91162C14.3637 6.91162 15.1285 7.16577 15.6771 7.67097C16.2257 8.17616 16.498 8.81154 16.498 9.57708C16.498 10.0513 16.3859 10.6371 16.1576 11.3282C15.9294 12.0194 15.629 12.8159 15.2566 13.7148C14.8842 14.6136 14.6159 15.3419 14.4558 15.8998C14.1875 16.8296 14.4237 17.6355 15.1565 18.3173C15.8893 18.9992 16.8704 19.3401 18.0997 19.3401C20.21 19.3401 21.9519 18.4165 23.3254 16.5662C24.6989 14.7159 25.3877 12.4812 25.3877 9.85603C25.3877 7.85073 24.5468 6.21426 22.8649 4.94351C21.1831 3.67277 18.8325 3.03739 15.8172 3.03739C12.4536 3.03739 9.7226 3.87422 7.62832 5.54789C5.53403 7.22156 4.48489 9.22685 4.48489 11.5607C4.48489 12.9461 4.99345 14.1115 6.00655 15.063C6.35493 15.3729 6.45904 15.7046 6.3269 16.0548C6.27484 16.1571 6.19476 16.3957 6.08664 16.7676C5.97852 17.1396 5.89843 17.3782 5.84638 17.4805C5.79432 17.7068 5.65817 17.8586 5.44594 17.9299C5.23371 18.0012 4.99345 17.9981 4.72515 17.9144C3.15144 17.4185 1.97015 16.5662 1.18129 15.3574C0.392428 14.1487 0 12.7385 0 11.1268Z" fill="white"/>
</svg>
