<svg width="50" height="50" viewBox="0 0 50 50" fill="none" xmlns="http://www.w3.org/2000/svg">
<path d="M18.7604 28.125H14.5937C7.98956 28.125 2.61456 33.5 2.61456 40.1042V43.2292C2.61456 44.0938 3.31248 44.7917 4.17706 44.7917H29.1771C30.0416 44.7917 30.7396 44.0938 30.7396 43.2292V40.1042C30.7396 33.5 25.3646 28.125 18.7604 28.125ZM27.6146 41.6667H5.73956V40.1042C5.73956 35.2188 9.70831 31.25 14.5937 31.25H18.7604C23.6458 31.25 27.6146 35.2188 27.6146 40.1042V41.6667ZM16.6771 27.0834C22.7083 27.0834 27.6146 22.1771 27.6146 16.1459C27.6146 10.1146 22.7083 5.20837 16.6771 5.20837C10.6458 5.20837 5.73956 10.1146 5.73956 16.1459C5.73956 22.1771 10.6458 27.0834 16.6771 27.0834ZM16.6771 8.33337C20.9896 8.33337 24.4896 11.8334 24.4896 16.1459C24.4896 20.4584 20.9896 23.9584 16.6771 23.9584C12.3646 23.9584 8.86456 20.4584 8.86456 16.1459C8.86456 11.8334 12.3646 8.33337 16.6771 8.33337ZM47.2916 24.9688C47.2916 24.9584 47.2916 24.9375 47.2812 24.9271C47.2812 24.9271 47.2812 24.9271 47.2812 24.9167C47.2083 24.7396 47.1041 24.5938 46.9791 24.4584C46.9687 24.448 46.9583 24.4271 46.9479 24.4063L42.7812 20.2396C42.1666 19.625 41.1771 19.625 40.5729 20.2396C39.9687 20.8542 39.9583 21.8438 40.5729 22.448L42.0625 23.9584H32.2916C31.4271 23.9584 30.7291 24.6563 30.7291 25.5209C30.7291 26.3855 31.4271 27.0834 32.2916 27.0834H42.0625L40.5625 28.5834C39.9479 29.198 39.9479 30.1875 40.5625 30.7917C40.8646 31.0938 41.2708 31.25 41.6666 31.25C42.0625 31.25 42.4687 31.0938 42.7708 30.7917L46.9375 26.625C47.0729 26.4896 47.1666 26.3334 47.25 26.1667C47.2708 26.1146 47.2916 26.0625 47.3021 26.0105C47.3437 25.8855 47.3646 25.7605 47.375 25.625C47.375 25.573 47.3854 25.5209 47.3854 25.4688C47.3854 25.2917 47.3541 25.1355 47.2916 24.9688Z" fill="white"/>
</svg>
