<svg xmlns="http://www.w3.org/2000/svg" width="100" height="100" enable-background="new 0 0 100 100" viewBox="0 0 100 100"><path fill="#231F20" d="M54.51 85.268c-.741 1.281-2.125 2.143-3.711 2.143-2.367 0-4.285-1.919-4.285-4.286 0-2.367 1.918-4.286 4.285-4.286 1.586 0 2.97.862 3.711 2.143h19.86c1.375 0 2.701-.183 3.961-.521 2.623-4.343 4.245-9.36 4.555-14.737 1.124-.281 2.161-.784 3.06-1.46-.54-.717-.86-1.607-.86-2.568v-8.143l-2.144 1.714c0-2.144 0-4.386 0-6.429l-19.285-21-45 21c0 2.042 0 4.285 0 6.429l-4.286-3.429c0 0 0-.035 0-.095-1.333 1.511-2.143 3.494-2.143 5.667 0 4.014 2.76 7.382 6.484 8.314.973 16.903 14.935 30.257 32.087 30.257 9.546 0 18.103-4.137 23.984-10.72-.138.003-.275.005-.413.005H54.51zM65.799 53.125c2.367 0 4.286 1.918 4.286 4.286 0 2.367-1.919 4.286-4.286 4.286s-4.286-1.919-4.286-4.286C61.513 55.044 63.432 53.125 65.799 53.125zM35.799 61.697c-2.367 0-4.286-1.919-4.286-4.286 0-2.367 1.919-4.286 4.286-4.286s4.286 1.918 4.286 4.286C40.085 59.778 38.166 61.697 35.799 61.697zM89.37 65.982c0 6.982-4.639 12.765-11.039 14.479-.66.988-2.369 3.471-3.548 4.801 10.521-.216 18.873-8.704 18.873-19.28v-.58c-.632.368-1.363.58-2.144.58H89.37z"/><path fill="#231F20" d="M55.085,10.268c16.5,0,30,13.5,30,30v12.857c0-2.357,1.928-4.286,4.285-4.286v-8.571c0-18.857-15.429-34.286-34.285-34.286h-15c-1.286,0-2.144,0.857-2.144,2.143c0,0.904,0.425,1.595,1.124,1.926c0.295,0.14,0.638,0.217,1.02,0.217H55.085z"/><path fill="#231F20" d="M91.513,48.839H89.37c-2.357,0-4.285,1.929-4.285,4.286v0.428v8.143c0,0.961,0.32,1.852,0.86,2.568c0.784,1.041,2.029,1.717,3.425,1.717h2.143c0.78,0,1.512-0.212,2.144-0.58c1.278-0.744,2.143-2.128,2.143-3.706v-8.571C95.799,50.768,93.87,48.839,91.513,48.839z"/></svg>