<svg width="29" height="24" viewBox="0 0 29 24" fill="none" xmlns="http://www.w3.org/2000/svg">
<path d="M28.5721 2.75488C27.5186 3.22109 26.3924 3.53594 25.2057 3.68125C26.4166 2.95469 27.349 1.8043 27.785 0.435937C26.6527 1.10801 25.3994 1.59844 24.0613 1.85879C22.9896 0.714453 21.4639 0 19.7807 0C16.5414 0 13.9197 2.62773 13.9197 5.86699C13.9197 6.32715 13.9682 6.7752 14.0711 7.20508C9.19707 6.96289 4.87402 4.62578 1.98594 1.07168C1.4834 1.9375 1.19277 2.94863 1.19277 4.02031C1.19277 6.05469 2.23418 7.85293 3.8084 8.90645C2.83965 8.88223 1.93145 8.61582 1.14434 8.17383V8.24648C1.14434 11.0922 3.1666 13.4596 5.84883 13.9984C5.3584 14.1316 4.8377 14.2043 4.30488 14.2043C3.92949 14.2043 3.56016 14.168 3.20293 14.0953C3.94766 16.4264 6.11523 18.1217 8.68242 18.1701C6.67832 19.7443 4.14746 20.6828 1.39863 20.6828C0.926367 20.6828 0.460156 20.6525 0 20.598C2.58535 22.2812 5.66719 23.25 8.97305 23.25C19.7686 23.25 25.6658 14.3072 25.6658 6.55117C25.6658 6.29688 25.6598 6.04258 25.6477 5.79434C26.792 4.96484 27.785 3.93555 28.5721 2.75488Z" fill="white"/>
</svg>
