<svg width="34" height="23" viewBox="0 0 34 23" fill="none" xmlns="http://www.w3.org/2000/svg">
<path d="M33.9922 8.10592C34.0685 5.9777 33.5851 3.86541 32.5867 1.96517C31.9093 1.18545 30.9692 0.659266 29.9302 0.4783C25.6327 0.102904 21.3174 -0.0509587 17.0029 0.0173715C12.7041 -0.0540601 8.40432 0.0948374 4.12193 0.463432C3.27528 0.611697 2.49176 0.994008 1.86699 1.56371C0.47696 2.79781 0.322512 4.90916 0.168064 6.6934C-0.0560213 9.90141 -0.0560213 13.1203 0.168064 16.3283C0.212746 17.3325 0.368065 18.3294 0.631408 19.302C0.817634 20.053 1.19441 20.7478 1.72799 21.3242C2.35701 21.924 3.15877 22.3281 4.02926 22.4839C7.35903 22.8796 10.7141 23.0436 14.0684 22.9746C19.4741 23.0489 24.2156 22.9746 29.8221 22.5583C30.7139 22.412 31.5383 22.0074 32.1851 21.3985C32.6175 20.9821 32.9405 20.4723 33.1273 19.9116C33.6796 18.28 33.9509 16.5723 33.9304 14.8563C33.9922 14.0236 33.9922 8.99804 33.9922 8.10592ZM13.5124 15.7484V6.54471L22.6557 11.1689C20.0919 12.5368 16.7094 14.0831 13.5124 15.7484Z" fill="white"/>
</svg>
